<svg width="64px" height="64px" viewBox="0 0 64 64" version="1.1" xmlns="http://www.w3.org/2000/svg" xmlns:xlink="http://www.w3.org/1999/xlink">
    <title>CV and Robotics Research Icon</title>
    <desc>An icon representing computer vision and robotics research, featuring a gear enclosing a robotic eye with a camera aperture pupil.</desc>
    <defs>
    </defs>
    <g id="CV-Robotics-Icon" stroke="none" stroke-width="1" fill="none" fill-rule="evenodd" stroke-linecap="round" stroke-linejoin="round">
        <g id="Icon-Group" transform="translate(2.000000, 2.000000)" stroke="#005b96" stroke-width="2.5">
            <path d="M30,60 C13.4314575,60 0,46.5685425 0,30 C0,13.4314575 13.4314575,0 30,0 C46.5685425,0 60,13.4314575 60,30 C60,46.5685425 46.5685425,60 30,60 Z M30,54 C43.254834,54 54,43.254834 54,30 C54,16.745166 43.254834,6 30,6 C16.745166,6 6,16.745166 6,30 C6,43.254834 16.745166,54 30,54 Z" id="Gear-Ring"></path>
            <path d="M30,0 L30,6 M30,54 L30,60 M60,30 L54,30 M6,30 L0,30 M51.2132034,8.78679656 L46.9705627,13.0294373 M13.0294373,46.9705627 L8.78679656,51.2132034 M51.2132034,51.2132034 L46.9705627,46.9705627 M13.0294373,13.0294373 L8.78679656,8.78679656" id="Gear-Teeth"></path>
            
            <path d="M6,30 C6,30 16,14 30,14 C44,14 54,30 54,30 C54,30 44,46 30,46 C16,46 6,30 6,30 Z" id="Eye-Shape"></path>
            
            <polygon id="Aperture" points="30 37 24 34 24 26 30 23 36 26 36 34"></polygon>
            
            <circle id="Sensor-Node" fill="#005b96" cx="30" cy="14" r="3"></circle>
        </g>
    </g>
</svg>